<svg id="Capa_1" data-name="Capa 1" xmlns="http://www.w3.org/2000/svg" viewBox="0 0 40 40"><defs><style>.cls-1{fill:#505050;}</style></defs><title>icono</title><path class="cls-1" d="M29.66.5H10.34A9.85,9.85,0,0,0,.5,10.34V29.66a9.85,9.85,0,0,0,9.84,9.84H29.66a9.85,9.85,0,0,0,9.84-9.84V10.34A9.85,9.85,0,0,0,29.66.5Zm5.6,29.16a5.6,5.6,0,0,1-5.6,5.6H10.34a5.6,5.6,0,0,1-5.6-5.6V10.34a5.6,5.6,0,0,1,5.6-5.6H29.66a5.6,5.6,0,0,1,5.6,5.6Z"/><circle class="cls-1" cx="30.37" cy="9.66" r="2.38"/><path class="cls-1" d="M20,10A10,10,0,1,0,30,20,10,10,0,0,0,20,10ZM20,25.8A5.8,5.8,0,1,1,25.8,20,5.8,5.8,0,0,1,20,25.8Z"/></svg>