<?xml version="1.0" encoding="utf-8"?>
<!-- Generator: Adobe Illustrator 23.0.1, SVG Export Plug-In . SVG Version: 6.00 Build 0)  -->
<svg version="1.1" id="Capa_1" xmlns="http://www.w3.org/2000/svg" xmlns:xlink="http://www.w3.org/1999/xlink" x="0px" y="0px"
	 viewBox="0 0 52 40" style="enable-background:new 0 0 52 40;" xml:space="preserve">
<style type="text/css">
	.st0{fill:#505050;}
	.st1{fill:#505050;stroke:#505050;stroke-width:2;stroke-miterlimit:10;}
</style>
<title>icono</title>
<path class="st0" d="M45.4,0.5H6.6c-3.5,0-6.3,2.8-6.3,6.3v26.5c0,3.5,2.8,6.3,6.3,6.3h38.7c3.5,0,6.3-2.8,6.3-6.3V6.8
	C51.6,3.3,48.8,0.5,45.4,0.5z M47.4,32.1c0,1.7-1.4,3.1-3.2,3.1H7.8c-1.8,0-3.2-1.4-3.2-3.1V7.9c0-1.7,1.4-3.1,3.2-3.1h36.4
	c1.8,0,3.2,1.4,3.2,3.1L47.4,32.1L47.4,32.1z"/>
<path class="st1" d="M32.1,19.7L43.4,9.6c0.5-0.5,0.6-1.3,0.1-1.8c-0.5-0.5-1.3-0.6-1.8-0.1L26,21.6l-3.1-2.7l0,0l-0.2-0.2L10.4,7.6
	C9.8,7.1,9,7.2,8.5,7.7S8.1,9.1,8.6,9.6l11.5,10.2L8.7,30.5c-0.5,0.5-0.5,1.3-0.1,1.8c0.2,0.2,0.6,0.4,0.9,0.4
	c0.3,0,0.7-0.1,0.9-0.3L22,21.5l3.1,2.8c0.2,0.2,0.6,0.3,0.9,0.3c0.3,0,0.6-0.1,0.9-0.3l3.2-2.9l11.5,11c0.5,0.5,1.3,0.4,1.8,0
	c0.5-0.5,0.4-1.3-0.1-1.8L32.1,19.7z"/>
<title>icono</title>
</svg>
